# xmcd CD database file
#
# Track frame offsets:
#	150
#	17746
#	39976
#	69323
#	82231
#	100549
#	120673
#	154896
#	176240
#	187819
#	203819
#	220408
#	245869
#
# Disc length: 3527 seconds
#
# Revision: 0
# Processed by: cddbd v1.5.2PL0 Copyright (c) Steve Scherf et al.
# Submitted via: CDex 1.70beta2
#
DISCID=b30dc50d
DTITLE=Chris Garrick and John Etheridge - Dimming Of The Day
DYEAR=2006
DGENRE=Jazz
TTITLE0=Dimming Of The Day
TTITLE1=Thouch Her Soft Lips And Part
TTITLE2=Cinema Paradiso
TTITLE3=The Londonderry Air
TTITLE4=I'll Never Be The Same
TTITLE5=Invierno Portento
TTITLE6=The Gentle Rain
TTITLE7=Stormy Weather
TTITLE8=Love Me Tender
TTITLE9=Don't Worry 'Bout Me
TTITLE10=Come Sunday
TTITLE11=Absinthe Minded
TTITLE12=Tennessee Waltz
EXTD=YEAR: 2006
EXTT0=
EXTT1=
EXTT2=
EXTT3=
EXTT4=
EXTT5=
EXTT6=
EXTT7=
EXTT8=
EXTT9=
EXTT10=
EXTT11=
EXTT12=
PLAYORDER=
